# Blender 4.4.3
# www.blender.org
mtllib RUBBLE 1.mtl
o Cube
v -0.394823 1.551039 -0.343574
v -0.185046 1.202967 -0.011658
v 0.119970 1.204186 -0.513607
v 0.356064 1.573593 0.444317
v 0.276472 1.201161 0.350654
v 0.110475 1.682638 -0.929155
v -0.491553 1.319415 -0.068730
v -0.005265 1.242863 -0.749343
v 0.286330 1.316851 0.602654
v 0.754437 1.542345 0.983466
v 0.550199 1.202050 0.419103
v 0.418847 1.201784 0.501180
v 0.900797 1.332457 0.683785
v 0.771158 1.313237 0.842936
v 1.052268 1.636460 -0.495443
v 0.473126 1.202639 -0.690785
v 0.590346 1.202050 -0.427941
v 0.662092 1.292073 -0.645545
v 0.790394 1.293406 -0.476971
v 0.219049 2.773047 -0.384341
v 0.728647 2.369602 0.438585
v 0.524342 2.852993 -0.275029
v -0.235769 1.534869 0.615458
v -0.409178 1.536562 0.350406
v 0.090519 1.200225 0.418137
v -0.149270 1.200355 0.341570
v -0.553432 1.332743 0.537255
v -0.250468 2.558433 -0.363825
v -0.033520 2.602447 -0.380549
v 0.230513 2.293143 -0.020140
v 0.182544 1.957411 0.245824
v 0.547695 2.094230 0.613065
v 0.674656 1.692296 0.754251
v -0.225137 1.718046 0.146147
v -0.170972 2.152244 0.048191
v 0.035656 1.984250 0.153851
v 0.098562 2.290345 -0.058502
v -0.161843 1.618633 -0.744938
v -0.076870 1.203399 -0.189678
v -0.289093 1.287543 -0.352095
v 0.923694 1.644659 -0.667785
v 0.716335 1.445127 -0.769188
v 0.481827 1.679131 -0.901473
v 0.714369 1.833951 -0.752792
v 0.857536 1.806461 0.432328
v 0.904791 1.601438 0.668422
v 0.959710 1.517291 0.557539
v 1.049650 1.649251 0.025047
v -0.225256 1.291679 0.670098
v -0.175727 1.327064 0.728340
v -0.288584 1.420140 0.684051
v -0.473446 1.332088 0.638023
v -0.351782 1.780458 -0.350749
v 0.837696 1.310137 0.020350
v 0.619244 2.770383 -0.101288
v 0.654059 2.651902 0.126049
v 0.732919 2.052280 -0.039396
v 0.726119 2.064618 -0.109137
v 0.380956 2.524803 0.161012
v 0.049626 1.322083 0.667041
v -0.399010 1.546817 -0.141199
v 0.029740 2.452968 -0.226307
v -0.507626 1.322877 0.088682
v -0.291964 1.750979 -0.116051
v 0.226208 2.473388 -0.156928
v -0.217279 2.388850 -0.191809
v 0.696093 2.399192 0.037864
v 0.684251 2.420180 -0.106062
v 0.154472 2.034715 -0.708384
v -0.107414 1.932150 -0.590380
vn -0.3520 0.5734 0.7398
vn -0.7970 -0.3029 -0.5226
vn 0.2139 0.4884 0.8460
vn -0.0014 -0.8296 -0.5584
vn -0.6562 0.0990 0.7480
vn 0.3719 -0.9283 0.0050
vn -0.3046 -0.9420 -0.1409
vn -0.0041 -1.0000 -0.0022
vn -0.3160 -0.8057 0.5010
vn -0.0008 -1.0000 -0.0058
vn 0.8720 -0.0798 0.4829
vn 0.2070 -0.9674 0.1459
vn 0.8210 -0.5706 -0.0195
vn 0.1052 0.5476 -0.8301
vn 0.4082 -0.8832 -0.2308
vn 0.1016 -0.4717 -0.8759
vn -0.6198 0.7357 0.2731
vn -0.5410 0.4724 -0.6959
vn -0.7202 0.1924 0.6666
vn 0.0743 0.6139 0.7859
vn -0.3302 -0.9439 0.0016
vn 0.6858 -0.5430 -0.4845
vn 0.4683 0.7595 0.4516
vn 0.1255 -0.8934 0.4314
vn -0.5467 0.7134 0.4384
vn -0.9370 0.3184 0.1438
vn -0.0806 0.7008 0.7088
vn -0.8811 0.4700 -0.0523
vn -0.7313 0.2679 0.6273
vn -0.1369 0.4013 0.9057
vn -0.2944 0.6032 0.7412
vn 0.9753 0.2117 -0.0636
vn -0.5344 0.1769 -0.8265
vn -0.2358 -0.9668 -0.0983
vn 0.0002 -1.0000 -0.0042
vn -0.6892 -0.2794 -0.6685
vn 0.4696 0.0396 -0.8820
vn 0.7899 0.6133 -0.0061
vn 0.8823 0.4110 0.2292
vn -0.2854 -0.2414 0.9275
vn -0.1571 -0.9624 0.2217
vn -0.8646 0.2016 0.4602
vn -0.9493 0.1358 0.2835
vn -0.2639 0.6625 0.7010
vn 0.8859 -0.4632 -0.0226
vn 0.9816 0.1827 -0.0547
vn 0.6421 0.7044 -0.3025
vn 0.0032 -1.0000 0.0003
vn -0.2879 0.8155 0.5020
vn 0.1031 -0.8866 0.4510
vn -0.6170 0.6309 0.4704
vn -0.2871 0.6012 0.7457
vn -0.9406 0.1614 0.2985
vn -0.7731 0.6272 0.0940
vn -0.0848 0.6997 0.7094
vn -0.9306 0.3623 -0.0516
vn 0.6612 0.2730 0.6988
vn 0.9043 0.4266 -0.0166
vn 0.9906 0.1187 -0.0679
vn 0.9613 0.2118 -0.1761
vn 0.1260 0.4192 -0.8991
vn -0.3914 0.3595 -0.8471
vn -0.8130 0.2839 -0.5083
vt 0.954960 0.066916
vt 0.898711 0.121221
vt 0.836385 0.088952
vt 0.829147 0.036537
vt 0.643902 0.316247
vt 0.732984 0.325873
vt 0.850482 0.403610
vt 0.691731 0.384284
vt 0.465214 0.235097
vt 0.478925 0.135134
vt 0.552434 0.224774
vt 0.547138 0.240657
vt 0.536908 0.243421
vt 0.513374 0.241886
vt 0.572256 0.457527
vt 0.677428 0.551026
vt 0.516418 0.607803
vt 0.549790 0.574241
vt 0.194098 0.587614
vt 0.188715 0.598772
vt 0.069234 0.587848
vt 0.146719 0.512692
vt 0.468299 0.549580
vt 0.462260 0.598359
vt 0.333495 0.599538
vt 0.211835 0.589168
vt 0.233952 0.521105
vt 0.601891 0.348252
vt 0.625059 0.394945
vt 0.231691 0.457527
vt 0.202981 0.511913
vt 0.504773 0.303174
vt 0.546219 0.298297
vt 0.226919 0.612853
vt 0.207865 0.617598
vt 0.431491 0.676550
vt 0.320614 0.649969
vt 0.502422 0.751878
vt 0.580257 0.727447
vt 0.676403 0.744858
vt 0.576852 0.899346
vt 0.528668 0.659989
vt 0.646881 0.208010
vt 0.593593 0.240090
vt 0.662890 0.119364
vt 0.936468 0.446016
vt 0.878574 0.302301
vt 0.954960 0.306275
vt 0.174692 0.621402
vt 0.017434 0.733424
vt 0.626636 0.097862
vt 0.563396 0.254378
vt 0.616750 0.294607
vt 0.476445 0.690218
vt 0.230186 0.660959
vt 0.475596 0.332552
vt 0.554557 0.248673
vt 0.690206 0.288806
vt 0.712351 0.244897
vt 0.771789 0.282863
vt 0.764008 0.073057
vt 0.813634 0.138083
vt 0.728736 0.138259
vt 0.162195 0.694593
vt 0.059105 0.900058
vt 0.749913 0.042293
vt 0.267486 0.788167
vt 0.225108 0.819953
vt 0.198430 0.744818
vt 0.862630 0.146566
vt 0.788570 0.500377
vt 0.684467 0.495214
vt 0.322529 0.744078
vt 0.308296 0.736329
vt 0.539597 0.251093
vt 0.165261 0.834378
vt 0.147191 0.974300
vt 0.257291 0.865433
vt 0.295400 0.807924
vt 0.281310 0.911479
vt 0.312611 0.982186
s 0
usemtl Material
f 20/1/1 29/2/1 62/3/1 65/4/1
f 7/5/2 1/6/2 38/7/2 40/8/2
f 9/9/3 4/10/3 23/11/3 51/12/3 50/13/3 60/14/3
f 3/15/4 8/16/4 18/17/4 16/18/4
f 14/19/5 10/20/5 4/21/5 9/22/5
f 17/23/6 19/24/6 54/25/6 13/26/6 11/27/6
f 2/28/7 7/5/7 40/8/7 39/29/7
f 17/23/8 5/30/8 3/15/8 16/18/8
f 12/31/9 14/19/9 9/22/9 5/30/9
f 2/28/10 39/29/10 25/32/10 26/33/10
f 10/20/11 14/19/11 13/26/11 47/34/11 46/35/11
f 14/19/12 12/31/12 11/27/12 13/26/12
f 19/24/13 15/36/13 48/37/13 54/25/13
f 44/38/14 43/39/14 6/40/14 69/41/14
f 19/24/15 17/23/15 16/18/15 18/17/15
f 8/16/16 6/40/16 43/39/16 42/42/16 18/17/16
f 34/43/17 24/44/17 23/11/17 36/45/17
f 6/46/18 38/7/18 70/47/18 69/48/18
f 4/21/19 10/20/19 33/49/19 31/50/19
f 23/11/20 4/10/20 31/51/20 36/45/20
f 26/33/21 27/52/21 63/53/21 7/5/21 2/28/21
f 15/36/22 19/24/22 18/17/22 42/42/22 41/54/22
f 10/20/23 46/35/23 45/55/23 33/49/23
f 5/56/24 9/9/24 60/14/24 25/32/24
f 52/57/25 51/12/25 23/11/25 24/44/25 27/52/25
f 1/6/26 61/58/26 64/59/26 53/60/26
f 37/61/27 62/3/27 66/62/27 35/63/27
f 27/52/28 24/44/28 61/58/28 63/53/28
f 31/50/29 33/49/29 32/64/29 30/65/29
f 34/43/30 36/45/30 37/61/30 35/63/30
f 30/66/31 37/61/31 36/45/31 31/51/31
f 45/55/32 67/67/32 56/68/32 21/69/32
f 29/2/33 70/47/33 53/60/33 28/70/33
f 39/29/34 40/8/34 8/71/34 3/72/34
f 25/32/35 39/29/35 3/72/35 5/56/35
f 40/8/36 38/7/36 6/46/36 8/71/36
f 41/54/37 42/42/37 43/39/37 44/38/37
f 58/73/38 57/74/38 48/37/38 15/36/38
f 45/55/39 46/35/39 47/34/39 48/37/39
f 49/75/40 50/13/40 51/12/40 52/57/40
f 25/32/41 49/75/41 52/57/41 27/52/41 26/33/41
f 32/64/42 59/76/42 65/77/42 30/65/42
f 53/60/43 64/59/43 66/62/43 28/70/43
f 56/68/44 59/76/44 32/64/44 21/69/44
f 54/25/45 48/37/45 47/34/45 13/26/45
f 55/78/46 56/68/46 67/67/46 68/79/46
f 15/36/47 41/54/47 44/38/47 58/73/47
f 5/30/48 17/23/48 11/27/48 12/31/48
f 59/76/49 56/68/49 55/78/49 22/80/49
f 25/32/50 60/14/50 50/13/50 49/75/50
f 65/77/51 59/76/51 22/80/51 20/81/51
f 65/4/52 62/3/52 37/61/52 30/66/52
f 66/62/53 64/59/53 34/43/53 35/63/53
f 64/59/54 61/58/54 24/44/54 34/43/54
f 66/62/55 62/3/55 29/2/55 28/70/55
f 63/53/56 61/58/56 1/6/56 7/5/56
f 33/49/57 45/55/57 21/69/57 32/64/57
f 67/67/58 45/55/58 48/37/58 57/74/58
f 68/79/59 67/67/59 57/74/59 58/73/59
f 58/73/60 44/38/60 22/80/60 55/78/60 68/79/60
f 69/41/61 20/81/61 22/80/61 44/38/61
f 69/48/62 70/47/62 29/2/62 20/1/62
f 53/60/63 70/47/63 38/7/63 1/6/63
